<!DOCTYPE svg PUBLIC "-//W3C//DTD SVG 1.1//EN" "http://www.w3.org/Graphics/SVG/1.1/DTD/svg11.dtd">
<!-- Uploaded to: SVG Repo, www.svgrepo.com, Transformed by: SVG Repo Mixer Tools -->
<svg width="800px" height="800px" viewBox="0 0 64 64" xmlns="http://www.w3.org/2000/svg" fill="#000000" transform="rotate(-45)">
<g id="SVGRepo_bgCarrier" stroke-width="0"/>
<g id="SVGRepo_tracerCarrier" stroke-linecap="round" stroke-linejoin="round"/>
<g id="SVGRepo_iconCarrier">
<path d="m34.33 13.7c.56-.38 0-1-.29-1-.84 0-1 .6-.81.91s.53.46 1.1.09zm-10 12.4c.31-.06.4-1.37 1.21-3.34a21.2 21.2 0 0 1 2.54-4c.09-.25-.36-.4-.57-.34-.56.15-2.06 2.06-2.84 3.78a37.68 37.68 0 0 0 -1.41 3.62c-.03.18.74.34 1.07.28zm3.67 7.72a2.29 2.29 0 0 0 -2.72-2.62c-3.31.9-2.68 3.93-1.12 4.81a2.46 2.46 0 0 0 3.84-2.19zm-2.8-1.62a1.21 1.21 0 0 1 1.8 1.21c.06 1.32-.5 2-2.16 1.38s-1.05-2.09.36-2.59zm4.31 7.8a1.06 1.06 0 0 0 -.78.43c-.12.25 2.19 3.16 2.35 3.41s.25-.09.4-.41-1.87-3.43-1.97-3.43zm-2 .87a3 3 0 0 0 -.71.44 35.14 35.14 0 0 0 2.71 3.62c.1.07.29-.15.47-.43s-2.31-3.65-2.44-3.65zm-1.65 1.13a1.29 1.29 0 0 0 -.72.4 38.71 38.71 0 0 0 3 3.72c.09 0 .37-.15.41-.34a23.7 23.7 0 0 0 -2.69-3.78zm19.81 13.57c-.38-.5-1.06-.06-1.19-.06a12.57 12.57 0 0 1 -1.62-2.41c-.69-1.19-.41-2.09-.5-3.84s-1-1.69-1.66-2.13a5.43 5.43 0 0 1 -2.31-2.72c-.78-1.71.06-3 0-4.65s-1.81-2.19-3.06-3.13a3.08 3.08 0 0 1 -1-3.22c.12-1 1.15-3.21 1.21-4.5s-1.71-2.09-1-4 2.16-2.29 2.85-3.66-.63-3.22-.31-4.44 1.5-1.19 2.84-2.59.87-3.53.69-5 1.31-1.52 1.75-2.02-.22-1.13-.88-1.13c-1.59 0-4.31.47-8.5 2.5s-8.87 6.84-11 10.66-4.69 10.68-3.44 16 3.46 12.12 9.57 17.5 16.43 5.27 16.89 5.18 1-1.84.67-2.34zm-8.56-.91a16.73 16.73 0 0 1 -4.82-1.78 11 11 0 0 1 -3.46-2.68c.05-.12 1.75-.72 2.25-.35s.81 1.19 2.18 1.53 2.6.63 3.13 1.32.94 1.9.72 1.96zm4.66.76a19.7 19.7 0 0 1 -3.39-.42c-.11-.21 0-2.82-1.77-3.57s-3.07-.89-3.82-1.45-1.16-1.09-2.27-1.07-2.18.36-2.68.32-2-1.63-4.5-6.82a27.73 27.73 0 0 1 -3-12.06c.08-2.25 1.85-7.15 3.43-9.85a27.87 27.87 0 0 1 6.23-7.5 29.32 29.32 0 0 1 8.76-4.79c.19 0-.2.83 0 1.81a3.41 3.41 0 0 1 -.76 3.59c-1.29 1.52-3.16 2-3.06 3.88s1.06 2.56.06 3.79-3 2.72-3.08 4.72 1.37 2.23 1.44 3.39-1.36 3.61-1.15 5.31a4.89 4.89 0 0 0 1.79 3.54c1.09 1 2.42 1.14 2.44 2.25s-1.25 2.93.25 5.25 3.58 3 3.77 3.68-.12 2.61.4 3.61a8.33 8.33 0 0 1 .91 2.39z" fill="#ccc"/>
</g>
</svg>